<svg xmlns="http://www.w3.org/2000/svg" xmlns:xlink="http://www.w3.org/1999/xlink" width="3000" zoomAndPan="magnify" viewBox="0 0 2250 2250.000011" height="3000" preserveAspectRatio="xMidYMid meet" version="1.0"><defs><filter x="0%" y="0%" width="100%" height="100%" id="80883d6b39"><feColorMatrix values="0 0 0 0 1 0 0 0 0 1 0 0 0 0 1 0 0 0 1 0" color-interpolation-filters="sRGB"/></filter><clipPath id="8396a90a8e"><path d="M 257 788 L 2038 788 L 2038 2205.519531 L 257 2205.519531 Z M 257 788 " clip-rule="nonzero"/></clipPath><mask id="35586c69a4"><g filter="url(#80883d6b39)"><rect x="-225" width="2700" fill="#000000" y="-225.000001" height="2700.000013" fill-opacity="0.868"/></g></mask><clipPath id="38b409e8f5"><path d="M 9 6 L 1768 6 L 1768 1417.519531 L 9 1417.519531 Z M 9 6 " clip-rule="nonzero"/></clipPath><clipPath id="d7126bd93b"><rect x="0" width="1781" y="0" height="1418"/></clipPath><clipPath id="769ffb747d"><path d="M 136.65625 0 L 2113.527344 0 L 2113.527344 2205.519531 L 136.65625 2205.519531 Z M 136.65625 0 " clip-rule="nonzero"/></clipPath></defs><g clip-path="url(#8396a90a8e)"><g mask="url(#35586c69a4)"><g transform="matrix(1, 0, 0, 1, 257, 788)"><g clip-path="url(#d7126bd93b)"><path fill="#4f9484" d="M 1709.160156 665.453125 C 1709.160156 1019.164062 1372.433594 1366.292969 908.203125 1366.292969 C 443.96875 1366.292969 67.191406 1039.175781 67.191406 685.476562 C 67.191406 331.777344 463.980469 64.730469 928.226562 64.730469 C 1392.476562 64.730469 1709.160156 311.738281 1709.160156 665.453125 Z M 1709.160156 665.453125 " fill-opacity="1" fill-rule="nonzero"/><g clip-path="url(#38b409e8f5)"><path stroke-linecap="square" transform="matrix(13.688559, 0, 0, 13.688559, -409.829012, -1053.557881)" fill="none" stroke-linejoin="bevel" d="M 154.800022 125.580133 C 154.800022 151.42003 130.200897 176.779084 96.287139 176.779084 C 62.373095 176.779084 34.848112 152.88196 34.848112 127.042919 C 34.848112 101.203879 63.835025 81.695114 97.749925 81.695114 C 131.66511 81.695114 154.800022 99.739951 154.800022 125.580133 Z M 154.800022 125.580133 " stroke="#1f1c24" stroke-width="6" stroke-opacity="1" stroke-miterlimit="4"/></g></g></g></g></g><path fill="#4f9484" d="M 2054.726562 1140.804688 C 2054.726562 1651.539062 1673.417969 2152.785156 1147.722656 2152.785156 C 622.027344 2152.785156 195.367188 1680.449219 195.367188 1169.714844 C 195.367188 902.761719 438.269531 870.238281 630.527344 708.847656 C 806.09375 561.476562 799.332031 53.125 1050.257812 53.125 C 1354.898438 53.125 1801.691406 322.722656 1958.824219 673.367188 C 2023.839844 818.464844 2032.257812 921.800781 2054.742188 1140.804688 Z M 2054.726562 1140.804688 " fill-opacity="0.82" fill-rule="nonzero"/><g clip-path="url(#769ffb747d)"><path stroke-linecap="square" transform="matrix(13.688559, 0, 0, 13.688559, -152.829019, -265.557909)" fill="none" stroke-linejoin="bevel" d="M 161.270127 102.740007 C 161.270127 140.051048 133.414119 176.668935 95.010126 176.668935 C 56.606133 176.668935 25.437025 142.163042 25.437025 104.852001 C 25.437025 85.350084 43.181943 82.974126 57.227089 71.183942 C 70.052867 60.417937 69.558898 23.280969 87.889958 23.280969 C 110.145086 23.280969 142.78497 42.976078 154.264105 68.591963 C 159.013738 79.191885 159.628702 86.740958 161.271269 102.740007 Z M 161.270127 102.740007 " stroke="#1f1c24" stroke-width="7.672" stroke-opacity="1" stroke-miterlimit="4"/></g><path fill="#4f9484" d="M 1505.554688 1343.257812 C 1505.554688 1347.355469 1505.515625 1351.449219 1505.433594 1355.539062 C 1505.355469 1359.628906 1505.234375 1363.714844 1505.074219 1367.789062 C 1504.914062 1371.867188 1504.710938 1375.929688 1504.472656 1379.980469 C 1504.230469 1384.035156 1503.949219 1388.070312 1503.628906 1392.085938 C 1503.3125 1396.105469 1502.953125 1400.097656 1502.554688 1404.074219 C 1502.15625 1408.046875 1501.71875 1411.992188 1501.242188 1415.914062 C 1500.769531 1419.832031 1500.253906 1423.71875 1499.703125 1427.578125 C 1499.148438 1431.433594 1498.5625 1435.253906 1497.933594 1439.039062 C 1497.308594 1442.824219 1496.644531 1446.566406 1495.941406 1450.269531 C 1495.242188 1453.972656 1494.503906 1457.632812 1493.734375 1461.246094 C 1492.960938 1464.855469 1492.152344 1468.417969 1491.308594 1471.933594 C 1490.46875 1475.445312 1489.589844 1478.90625 1488.679688 1482.3125 C 1487.769531 1485.71875 1486.828125 1489.066406 1485.851562 1492.355469 C 1484.875 1495.648438 1483.867188 1498.875 1482.828125 1502.042969 C 1481.789062 1505.210938 1480.71875 1508.308594 1479.617188 1511.34375 C 1478.519531 1514.378906 1477.386719 1517.34375 1476.230469 1520.242188 C 1475.070312 1523.140625 1473.886719 1525.960938 1472.671875 1528.714844 C 1471.457031 1531.464844 1470.21875 1534.140625 1468.949219 1536.738281 C 1467.683594 1539.335938 1466.394531 1541.855469 1465.074219 1544.296875 C 1463.757812 1546.734375 1462.421875 1549.09375 1461.058594 1551.367188 C 1459.695312 1553.644531 1458.3125 1555.835938 1456.90625 1557.941406 C 1455.5 1560.046875 1454.074219 1562.066406 1452.632812 1563.996094 C 1451.1875 1565.929688 1449.722656 1567.769531 1448.242188 1569.519531 C 1446.761719 1571.269531 1445.261719 1572.929688 1443.75 1574.496094 C 1442.234375 1576.066406 1440.707031 1577.539062 1439.164062 1578.917969 C 1437.621094 1580.300781 1436.066406 1581.585938 1434.496094 1582.773438 C 1432.929688 1583.960938 1431.351562 1585.054688 1429.761719 1586.050781 C 1428.171875 1587.046875 1426.574219 1587.941406 1424.964844 1588.742188 C 1423.359375 1589.539062 1421.746094 1590.242188 1420.125 1590.84375 C 1418.503906 1591.445312 1416.878906 1591.945312 1415.246094 1592.347656 C 1413.617188 1592.75 1411.984375 1593.050781 1410.347656 1593.25 C 1408.710938 1593.453125 1407.074219 1593.550781 1405.433594 1593.550781 C 1403.796875 1593.550781 1402.160156 1593.453125 1400.523438 1593.25 C 1398.886719 1593.050781 1397.25 1592.75 1395.621094 1592.347656 C 1393.992188 1591.945312 1392.363281 1591.445312 1390.742188 1590.84375 C 1389.121094 1590.242188 1387.507812 1589.542969 1385.902344 1588.742188 C 1384.292969 1587.941406 1382.695312 1587.046875 1381.105469 1586.050781 C 1379.515625 1585.054688 1377.9375 1583.960938 1376.371094 1582.773438 C 1374.800781 1581.585938 1373.246094 1580.300781 1371.703125 1578.921875 C 1370.160156 1577.539062 1368.632812 1576.066406 1367.117188 1574.496094 C 1365.605469 1572.929688 1364.105469 1571.269531 1362.625 1569.519531 C 1361.144531 1567.769531 1359.679688 1565.929688 1358.238281 1563.996094 C 1356.792969 1562.066406 1355.367188 1560.046875 1353.960938 1557.941406 C 1352.554688 1555.835938 1351.171875 1553.644531 1349.808594 1551.367188 C 1348.445312 1549.09375 1347.109375 1546.734375 1345.792969 1544.296875 C 1344.476562 1541.855469 1343.1875 1539.335938 1341.917969 1536.738281 C 1340.652344 1534.136719 1339.414062 1531.464844 1338.199219 1528.710938 C 1336.984375 1525.960938 1335.796875 1523.136719 1334.640625 1520.242188 C 1333.480469 1517.34375 1332.351562 1514.378906 1331.25 1511.34375 C 1330.148438 1508.308594 1329.078125 1505.207031 1328.039062 1502.042969 C 1327 1498.875 1325.992188 1495.648438 1325.015625 1492.355469 C 1324.039062 1489.066406 1323.097656 1485.71875 1322.1875 1482.3125 C 1321.277344 1478.90625 1320.398438 1475.445312 1319.558594 1471.933594 C 1318.714844 1468.417969 1317.910156 1464.855469 1317.136719 1461.246094 C 1316.363281 1457.632812 1315.628906 1453.972656 1314.925781 1450.269531 C 1314.226562 1446.566406 1313.5625 1442.824219 1312.933594 1439.039062 C 1312.308594 1435.253906 1311.71875 1431.433594 1311.167969 1427.578125 C 1310.613281 1423.71875 1310.101562 1419.832031 1309.625 1415.914062 C 1309.152344 1411.992188 1308.714844 1408.046875 1308.316406 1404.074219 C 1307.917969 1400.097656 1307.558594 1396.105469 1307.238281 1392.085938 C 1306.917969 1388.066406 1306.640625 1384.035156 1306.398438 1379.980469 C 1306.160156 1375.929688 1305.957031 1371.867188 1305.796875 1367.789062 C 1305.636719 1363.714844 1305.515625 1359.628906 1305.433594 1355.539062 C 1305.355469 1351.445312 1305.316406 1347.355469 1305.316406 1343.257812 C 1305.316406 1339.160156 1305.355469 1335.066406 1305.433594 1330.976562 C 1305.515625 1326.882812 1305.636719 1322.800781 1305.796875 1318.726562 C 1305.957031 1314.648438 1306.160156 1310.582031 1306.398438 1306.53125 C 1306.640625 1302.480469 1306.917969 1298.445312 1307.238281 1294.425781 C 1307.558594 1290.410156 1307.917969 1286.414062 1308.316406 1282.441406 C 1308.710938 1278.46875 1309.148438 1274.519531 1309.625 1270.601562 C 1310.101562 1266.679688 1310.613281 1262.792969 1311.167969 1258.933594 C 1311.71875 1255.078125 1312.308594 1251.257812 1312.933594 1247.472656 C 1313.5625 1243.6875 1314.222656 1239.945312 1314.925781 1236.242188 C 1315.625 1232.539062 1316.363281 1228.878906 1317.136719 1225.265625 C 1317.90625 1221.65625 1318.714844 1218.089844 1319.558594 1214.578125 C 1320.398438 1211.0625 1321.277344 1207.605469 1322.1875 1204.199219 C 1323.097656 1200.792969 1324.039062 1197.445312 1325.015625 1194.15625 C 1325.992188 1190.867188 1327 1187.636719 1328.039062 1184.472656 C 1329.078125 1181.304688 1330.148438 1178.203125 1331.25 1175.167969 C 1332.351562 1172.132812 1333.480469 1169.167969 1334.636719 1166.269531 C 1335.796875 1163.375 1336.984375 1160.550781 1338.195312 1157.800781 C 1339.410156 1155.050781 1340.652344 1152.375 1341.917969 1149.777344 C 1343.183594 1147.179688 1344.476562 1144.660156 1345.792969 1142.21875 C 1347.109375 1139.777344 1348.445312 1137.417969 1349.808594 1135.144531 C 1351.171875 1132.867188 1352.554688 1130.675781 1353.960938 1128.570312 C 1355.367188 1126.464844 1356.792969 1124.445312 1358.234375 1122.515625 C 1359.679688 1120.585938 1361.144531 1118.742188 1362.625 1116.992188 C 1364.105469 1115.242188 1365.605469 1113.582031 1367.117188 1112.015625 C 1368.632812 1110.445312 1370.160156 1108.972656 1371.703125 1107.59375 C 1373.246094 1106.210938 1374.800781 1104.929688 1376.371094 1103.738281 C 1377.9375 1102.550781 1379.515625 1101.457031 1381.105469 1100.464844 C 1382.695312 1099.46875 1384.292969 1098.570312 1385.902344 1097.773438 C 1387.507812 1096.972656 1389.121094 1096.273438 1390.742188 1095.671875 C 1392.363281 1095.070312 1393.992188 1094.570312 1395.621094 1094.167969 C 1397.25 1093.765625 1398.886719 1093.464844 1400.523438 1093.261719 C 1402.160156 1093.0625 1403.796875 1092.960938 1405.433594 1092.960938 C 1407.074219 1092.960938 1408.710938 1093.0625 1410.347656 1093.261719 C 1411.984375 1093.464844 1413.617188 1093.765625 1415.25 1094.167969 C 1416.878906 1094.570312 1418.503906 1095.070312 1420.125 1095.671875 C 1421.746094 1096.273438 1423.359375 1096.972656 1424.964844 1097.773438 C 1426.574219 1098.570312 1428.171875 1099.46875 1429.761719 1100.460938 C 1431.351562 1101.457031 1432.929688 1102.550781 1434.496094 1103.738281 C 1436.066406 1104.925781 1437.621094 1106.210938 1439.164062 1107.59375 C 1440.707031 1108.972656 1442.234375 1110.445312 1443.75 1112.011719 C 1445.261719 1113.582031 1446.761719 1115.242188 1448.242188 1116.992188 C 1449.722656 1118.742188 1451.1875 1120.585938 1452.632812 1122.515625 C 1454.074219 1124.445312 1455.5 1126.464844 1456.90625 1128.570312 C 1458.3125 1130.675781 1459.695312 1132.867188 1461.058594 1135.144531 C 1462.421875 1137.417969 1463.757812 1139.777344 1465.074219 1142.21875 C 1466.394531 1144.65625 1467.683594 1147.175781 1468.949219 1149.777344 C 1470.21875 1152.375 1471.457031 1155.046875 1472.671875 1157.800781 C 1473.886719 1160.550781 1475.070312 1163.375 1476.230469 1166.269531 C 1477.386719 1169.167969 1478.519531 1172.132812 1479.617188 1175.167969 C 1480.71875 1178.203125 1481.789062 1181.304688 1482.828125 1184.472656 C 1483.867188 1187.636719 1484.875 1190.863281 1485.851562 1194.15625 C 1486.828125 1197.445312 1487.769531 1200.792969 1488.679688 1204.199219 C 1489.589844 1207.605469 1490.46875 1211.0625 1491.308594 1214.578125 C 1492.152344 1218.089844 1492.960938 1221.652344 1493.734375 1225.265625 C 1494.503906 1228.878906 1495.242188 1232.539062 1495.941406 1236.242188 C 1496.640625 1239.945312 1497.304688 1243.6875 1497.933594 1247.472656 C 1498.558594 1251.257812 1499.148438 1255.078125 1499.699219 1258.933594 C 1500.253906 1262.792969 1500.769531 1266.679688 1501.242188 1270.601562 C 1501.71875 1274.519531 1502.15625 1278.46875 1502.554688 1282.441406 C 1502.953125 1286.414062 1503.3125 1290.410156 1503.628906 1294.425781 C 1503.949219 1298.445312 1504.230469 1302.480469 1504.472656 1306.53125 C 1504.710938 1310.582031 1504.914062 1314.648438 1505.074219 1318.722656 C 1505.234375 1322.800781 1505.355469 1326.882812 1505.433594 1330.976562 C 1505.515625 1335.066406 1505.554688 1339.160156 1505.554688 1343.257812 Z M 1505.554688 1343.257812 " fill-opacity="1" fill-rule="nonzero"/><path fill="#4f9484" d="M 1785.898438 1333.128906 C 1785.898438 1337.226562 1785.855469 1341.320312 1785.777344 1345.410156 C 1785.695312 1349.5 1785.578125 1353.585938 1785.414062 1357.660156 C 1785.253906 1361.738281 1785.054688 1365.800781 1784.8125 1369.851562 C 1784.574219 1373.90625 1784.292969 1377.941406 1783.972656 1381.957031 C 1783.652344 1385.976562 1783.292969 1389.96875 1782.898438 1393.945312 C 1782.496094 1397.917969 1782.0625 1401.863281 1781.585938 1405.785156 C 1781.109375 1409.703125 1780.597656 1413.59375 1780.042969 1417.449219 C 1779.492188 1421.304688 1778.902344 1425.125 1778.277344 1428.910156 C 1777.648438 1432.695312 1776.984375 1436.4375 1776.285156 1440.140625 C 1775.585938 1443.84375 1774.847656 1447.503906 1774.074219 1451.117188 C 1773.300781 1454.726562 1772.496094 1458.289062 1771.652344 1461.804688 C 1770.808594 1465.316406 1769.933594 1468.777344 1769.023438 1472.183594 C 1768.113281 1475.589844 1767.167969 1478.9375 1766.195312 1482.226562 C 1765.21875 1485.519531 1764.210938 1488.746094 1763.171875 1491.914062 C 1762.132812 1495.082031 1761.0625 1498.179688 1759.960938 1501.214844 C 1758.859375 1504.25 1757.730469 1507.21875 1756.574219 1510.113281 C 1755.414062 1513.011719 1754.226562 1515.832031 1753.015625 1518.585938 C 1751.800781 1521.335938 1750.558594 1524.011719 1749.292969 1526.609375 C 1748.027344 1529.207031 1746.734375 1531.726562 1745.417969 1534.167969 C 1744.101562 1536.605469 1742.761719 1538.964844 1741.398438 1541.242188 C 1740.039062 1543.515625 1738.65625 1545.707031 1737.25 1547.8125 C 1735.84375 1549.917969 1734.417969 1551.9375 1732.972656 1553.867188 C 1731.527344 1555.800781 1730.066406 1557.640625 1728.585938 1559.390625 C 1727.101562 1561.140625 1725.605469 1562.800781 1724.089844 1564.367188 C 1722.578125 1565.9375 1721.046875 1567.410156 1719.503906 1568.789062 C 1717.964844 1570.171875 1716.40625 1571.457031 1714.839844 1572.644531 C 1713.273438 1573.835938 1711.695312 1574.925781 1710.105469 1575.921875 C 1708.515625 1576.917969 1706.914062 1577.8125 1705.308594 1578.613281 C 1703.703125 1579.410156 1702.085938 1580.113281 1700.464844 1580.714844 C 1698.847656 1581.316406 1697.21875 1581.816406 1695.589844 1582.21875 C 1693.960938 1582.621094 1692.328125 1582.921875 1690.691406 1583.121094 C 1689.054688 1583.324219 1687.414062 1583.425781 1685.777344 1583.425781 C 1684.136719 1583.425781 1682.5 1583.324219 1680.863281 1583.121094 C 1679.226562 1582.921875 1677.59375 1582.621094 1675.964844 1582.21875 C 1674.332031 1581.816406 1672.707031 1581.316406 1671.085938 1580.714844 C 1669.464844 1580.113281 1667.851562 1579.414062 1666.242188 1578.613281 C 1664.636719 1577.8125 1663.039062 1576.917969 1661.449219 1575.921875 C 1659.859375 1574.925781 1658.28125 1573.835938 1656.710938 1572.644531 C 1655.144531 1571.457031 1653.589844 1570.171875 1652.046875 1568.792969 C 1650.503906 1567.410156 1648.976562 1565.9375 1647.460938 1564.367188 C 1645.945312 1562.800781 1644.449219 1561.140625 1642.96875 1559.390625 C 1641.488281 1557.640625 1640.023438 1555.800781 1638.578125 1553.867188 C 1637.132812 1551.9375 1635.707031 1549.917969 1634.304688 1547.8125 C 1632.898438 1545.707031 1631.515625 1543.515625 1630.152344 1541.238281 C 1628.789062 1538.964844 1627.449219 1536.605469 1626.132812 1534.167969 C 1624.820312 1531.726562 1623.527344 1529.207031 1622.261719 1526.609375 C 1620.996094 1524.007812 1619.753906 1521.335938 1618.539062 1518.582031 C 1617.328125 1515.832031 1616.140625 1513.007812 1614.980469 1510.113281 C 1613.824219 1507.214844 1612.691406 1504.25 1611.59375 1501.214844 C 1610.492188 1498.179688 1609.421875 1495.078125 1608.382812 1491.914062 C 1607.34375 1488.746094 1606.335938 1485.519531 1605.359375 1482.226562 C 1604.382812 1478.9375 1603.441406 1475.589844 1602.53125 1472.183594 C 1601.617188 1468.777344 1600.742188 1465.316406 1599.898438 1461.804688 C 1599.058594 1458.289062 1598.25 1454.726562 1597.476562 1451.117188 C 1596.707031 1447.503906 1595.96875 1443.84375 1595.269531 1440.140625 C 1594.566406 1436.4375 1593.902344 1432.695312 1593.277344 1428.910156 C 1592.648438 1425.125 1592.0625 1421.304688 1591.507812 1417.449219 C 1590.957031 1413.59375 1590.445312 1409.703125 1589.96875 1405.785156 C 1589.492188 1401.863281 1589.054688 1397.917969 1588.65625 1393.945312 C 1588.257812 1389.96875 1587.898438 1385.976562 1587.582031 1381.957031 C 1587.261719 1377.9375 1586.980469 1373.90625 1586.742188 1369.851562 C 1586.5 1365.800781 1586.300781 1361.738281 1586.140625 1357.660156 C 1585.980469 1353.585938 1585.859375 1349.5 1585.777344 1345.410156 C 1585.699219 1341.316406 1585.65625 1337.226562 1585.65625 1333.128906 C 1585.65625 1329.03125 1585.699219 1324.9375 1585.777344 1320.847656 C 1585.859375 1316.757812 1585.980469 1312.671875 1586.140625 1308.597656 C 1586.300781 1304.519531 1586.5 1300.453125 1586.742188 1296.402344 C 1586.980469 1292.351562 1587.261719 1288.316406 1587.582031 1284.296875 C 1587.898438 1280.28125 1588.257812 1276.285156 1588.65625 1272.3125 C 1589.054688 1268.339844 1589.492188 1264.390625 1589.96875 1260.472656 C 1590.441406 1256.550781 1590.957031 1252.664062 1591.507812 1248.804688 C 1592.058594 1244.949219 1592.648438 1241.128906 1593.277344 1237.34375 C 1593.902344 1233.558594 1594.566406 1229.816406 1595.269531 1226.113281 C 1595.96875 1222.410156 1596.703125 1218.75 1597.476562 1215.136719 C 1598.25 1211.527344 1599.058594 1207.960938 1599.898438 1204.449219 C 1600.742188 1200.933594 1601.617188 1197.476562 1602.527344 1194.070312 C 1603.4375 1190.664062 1604.382812 1187.316406 1605.359375 1184.027344 C 1606.335938 1180.738281 1607.34375 1177.507812 1608.382812 1174.34375 C 1609.421875 1171.175781 1610.492188 1168.074219 1611.59375 1165.039062 C 1612.691406 1162.003906 1613.820312 1159.039062 1614.980469 1156.144531 C 1616.140625 1153.246094 1617.324219 1150.421875 1618.539062 1147.671875 C 1619.753906 1144.921875 1620.996094 1142.246094 1622.261719 1139.648438 C 1623.527344 1137.050781 1624.816406 1134.53125 1626.132812 1132.089844 C 1627.449219 1129.648438 1628.789062 1127.289062 1630.152344 1125.015625 C 1631.515625 1122.738281 1632.898438 1120.546875 1634.304688 1118.441406 C 1635.707031 1116.335938 1637.132812 1114.316406 1638.578125 1112.386719 C 1640.023438 1110.457031 1641.488281 1108.617188 1642.96875 1106.863281 C 1644.449219 1105.113281 1645.945312 1103.453125 1647.460938 1101.886719 C 1648.976562 1100.316406 1650.503906 1098.84375 1652.046875 1097.464844 C 1653.589844 1096.082031 1655.144531 1094.800781 1656.714844 1093.609375 C 1658.28125 1092.421875 1659.859375 1091.328125 1661.449219 1090.335938 C 1663.039062 1089.339844 1664.636719 1088.441406 1666.242188 1087.644531 C 1667.851562 1086.84375 1669.464844 1086.144531 1671.085938 1085.542969 C 1672.707031 1084.941406 1674.332031 1084.441406 1675.964844 1084.039062 C 1677.59375 1083.636719 1679.226562 1083.335938 1680.863281 1083.132812 C 1682.5 1082.933594 1684.136719 1082.832031 1685.777344 1082.832031 C 1687.414062 1082.832031 1689.054688 1082.933594 1690.691406 1083.132812 C 1692.328125 1083.335938 1693.960938 1083.636719 1695.589844 1084.039062 C 1697.222656 1084.441406 1698.847656 1084.941406 1700.464844 1085.542969 C 1702.085938 1086.144531 1703.703125 1086.84375 1705.308594 1087.644531 C 1706.914062 1088.441406 1708.515625 1089.339844 1710.101562 1090.335938 C 1711.691406 1091.328125 1713.273438 1092.421875 1714.839844 1093.609375 C 1716.40625 1094.800781 1717.964844 1096.082031 1719.503906 1097.464844 C 1721.046875 1098.84375 1722.578125 1100.316406 1724.089844 1101.882812 C 1725.605469 1103.453125 1727.101562 1105.113281 1728.585938 1106.863281 C 1730.066406 1108.613281 1731.527344 1110.457031 1732.972656 1112.386719 C 1734.417969 1114.316406 1735.84375 1116.335938 1737.25 1118.441406 C 1738.65625 1120.546875 1740.039062 1122.738281 1741.398438 1125.015625 C 1742.761719 1127.289062 1744.101562 1129.648438 1745.417969 1132.089844 C 1746.734375 1134.527344 1748.027344 1137.046875 1749.292969 1139.648438 C 1750.558594 1142.246094 1751.800781 1144.917969 1753.015625 1147.671875 C 1754.226562 1150.421875 1755.414062 1153.246094 1756.574219 1156.140625 C 1757.730469 1159.039062 1758.859375 1162.003906 1759.960938 1165.039062 C 1761.0625 1168.074219 1762.132812 1171.175781 1763.171875 1174.34375 C 1764.210938 1177.507812 1765.21875 1180.734375 1766.195312 1184.027344 C 1767.167969 1187.316406 1768.113281 1190.664062 1769.023438 1194.070312 C 1769.933594 1197.476562 1770.808594 1200.933594 1771.652344 1204.449219 C 1772.496094 1207.960938 1773.300781 1211.523438 1774.074219 1215.136719 C 1774.847656 1218.75 1775.582031 1222.410156 1776.285156 1226.113281 C 1776.984375 1229.816406 1777.648438 1233.558594 1778.273438 1237.34375 C 1778.902344 1241.128906 1779.492188 1244.949219 1780.042969 1248.804688 C 1780.59375 1252.664062 1781.109375 1256.550781 1781.585938 1260.472656 C 1782.0625 1264.390625 1782.496094 1268.339844 1782.898438 1272.3125 C 1783.292969 1276.285156 1783.652344 1280.28125 1783.972656 1284.296875 C 1784.292969 1288.316406 1784.574219 1292.351562 1784.8125 1296.402344 C 1785.054688 1300.453125 1785.253906 1304.519531 1785.414062 1308.597656 C 1785.578125 1312.671875 1785.695312 1316.757812 1785.777344 1320.847656 C 1785.855469 1324.9375 1785.898438 1329.03125 1785.898438 1333.128906 Z M 1785.898438 1333.128906 " fill-opacity="1" fill-rule="nonzero"/><path fill="#ffffff" d="M 1465.480469 1343.269531 C 1465.480469 1346.054688 1465.460938 1348.839844 1465.421875 1351.621094 C 1465.378906 1354.40625 1465.320312 1357.183594 1465.238281 1359.953125 C 1465.160156 1362.726562 1465.058594 1365.488281 1464.9375 1368.242188 C 1464.820312 1371 1464.679688 1373.742188 1464.519531 1376.472656 C 1464.359375 1379.207031 1464.179688 1381.925781 1463.980469 1384.625 C 1463.78125 1387.328125 1463.5625 1390.011719 1463.324219 1392.675781 C 1463.085938 1395.34375 1462.832031 1397.984375 1462.554688 1400.609375 C 1462.277344 1403.230469 1461.984375 1405.828125 1461.667969 1408.402344 C 1461.355469 1410.976562 1461.023438 1413.523438 1460.675781 1416.039062 C 1460.324219 1418.558594 1459.957031 1421.042969 1459.570312 1423.5 C 1459.183594 1425.957031 1458.78125 1428.378906 1458.359375 1430.769531 C 1457.9375 1433.160156 1457.5 1435.511719 1457.042969 1437.828125 C 1456.589844 1440.144531 1456.117188 1442.417969 1455.628906 1444.65625 C 1455.140625 1446.894531 1454.636719 1449.089844 1454.117188 1451.242188 C 1453.597656 1453.398438 1453.0625 1455.507812 1452.511719 1457.570312 C 1451.960938 1459.632812 1451.398438 1461.648438 1450.816406 1463.621094 C 1450.238281 1465.589844 1449.644531 1467.507812 1449.039062 1469.378906 C 1448.429688 1471.25 1447.8125 1473.070312 1447.179688 1474.835938 C 1446.542969 1476.605469 1445.898438 1478.316406 1445.242188 1479.976562 C 1444.582031 1481.636719 1443.914062 1483.238281 1443.230469 1484.785156 C 1442.550781 1486.332031 1441.859375 1487.824219 1441.15625 1489.253906 C 1440.453125 1490.6875 1439.742188 1492.0625 1439.019531 1493.375 C 1438.296875 1494.6875 1437.566406 1495.9375 1436.824219 1497.128906 C 1436.082031 1498.320312 1435.335938 1499.449219 1434.578125 1500.515625 C 1433.820312 1501.582031 1433.054688 1502.582031 1432.285156 1503.523438 C 1431.511719 1504.460938 1430.734375 1505.335938 1429.953125 1506.144531 C 1429.167969 1506.953125 1428.378906 1507.695312 1427.582031 1508.371094 C 1426.789062 1509.046875 1425.988281 1509.65625 1425.1875 1510.199219 C 1424.382812 1510.742188 1423.574219 1511.21875 1422.765625 1511.628906 C 1421.957031 1512.039062 1421.140625 1512.378906 1420.328125 1512.652344 C 1419.511719 1512.925781 1418.695312 1513.128906 1417.875 1513.265625 C 1417.058594 1513.402344 1416.238281 1513.472656 1415.417969 1513.472656 C 1414.601562 1513.472656 1413.78125 1513.402344 1412.964844 1513.265625 C 1412.144531 1513.128906 1411.328125 1512.925781 1410.511719 1512.652344 C 1409.699219 1512.378906 1408.882812 1512.039062 1408.074219 1511.628906 C 1407.261719 1511.21875 1406.457031 1510.742188 1405.652344 1510.199219 C 1404.847656 1509.65625 1404.050781 1509.046875 1403.253906 1508.371094 C 1402.460938 1507.695312 1401.671875 1506.953125 1400.886719 1506.144531 C 1400.105469 1505.335938 1399.324219 1504.460938 1398.554688 1503.519531 C 1397.78125 1502.582031 1397.019531 1501.582031 1396.261719 1500.515625 C 1395.503906 1499.449219 1394.753906 1498.320312 1394.015625 1497.128906 C 1393.273438 1495.9375 1392.542969 1494.6875 1391.820312 1493.375 C 1391.097656 1492.0625 1390.386719 1490.6875 1389.683594 1489.257812 C 1388.980469 1487.824219 1388.289062 1486.332031 1387.605469 1484.785156 C 1386.925781 1483.238281 1386.257812 1481.636719 1385.597656 1479.976562 C 1384.941406 1478.316406 1384.292969 1476.605469 1383.660156 1474.835938 C 1383.027344 1473.070312 1382.40625 1471.25 1381.800781 1469.378906 C 1381.195312 1467.507812 1380.601562 1465.589844 1380.019531 1463.621094 C 1379.441406 1461.648438 1378.875 1459.632812 1378.328125 1457.570312 C 1377.777344 1455.507812 1377.242188 1453.398438 1376.722656 1451.242188 C 1376.203125 1449.089844 1375.699219 1446.894531 1375.210938 1444.65625 C 1374.722656 1442.417969 1374.25 1440.144531 1373.792969 1437.828125 C 1373.339844 1435.511719 1372.902344 1433.160156 1372.480469 1430.769531 C 1372.058594 1428.378906 1371.65625 1425.957031 1371.269531 1423.5 C 1370.882812 1421.042969 1370.515625 1418.558594 1370.164062 1416.039062 C 1369.8125 1413.523438 1369.480469 1410.976562 1369.167969 1408.402344 C 1368.855469 1405.828125 1368.558594 1403.230469 1368.285156 1400.609375 C 1368.007812 1397.984375 1367.75 1395.34375 1367.515625 1392.675781 C 1367.277344 1390.011719 1367.058594 1387.328125 1366.859375 1384.625 C 1366.660156 1381.925781 1366.480469 1379.207031 1366.320312 1376.472656 C 1366.160156 1373.742188 1366.019531 1371 1365.898438 1368.246094 C 1365.78125 1365.488281 1365.679688 1362.726562 1365.597656 1359.953125 C 1365.519531 1357.179688 1365.457031 1354.402344 1365.417969 1351.621094 C 1365.378906 1348.839844 1365.359375 1346.054688 1365.359375 1343.269531 C 1365.359375 1340.484375 1365.378906 1337.699219 1365.417969 1334.917969 C 1365.457031 1332.136719 1365.519531 1329.359375 1365.597656 1326.585938 C 1365.679688 1323.816406 1365.78125 1321.050781 1365.898438 1318.296875 C 1366.019531 1315.539062 1366.160156 1312.796875 1366.320312 1310.066406 C 1366.480469 1307.332031 1366.660156 1304.617188 1366.859375 1301.914062 C 1367.058594 1299.210938 1367.277344 1296.527344 1367.515625 1293.863281 C 1367.75 1291.199219 1368.007812 1288.554688 1368.285156 1285.929688 C 1368.558594 1283.308594 1368.855469 1280.710938 1369.167969 1278.136719 C 1369.480469 1275.5625 1369.8125 1273.015625 1370.164062 1270.5 C 1370.515625 1267.980469 1370.882812 1265.496094 1371.269531 1263.039062 C 1371.65625 1260.582031 1372.058594 1258.15625 1372.480469 1255.769531 C 1372.902344 1253.378906 1373.339844 1251.027344 1373.792969 1248.710938 C 1374.25 1246.394531 1374.722656 1244.117188 1375.210938 1241.878906 C 1375.699219 1239.644531 1376.203125 1237.449219 1376.722656 1235.296875 C 1377.242188 1233.140625 1377.777344 1231.03125 1378.328125 1228.96875 C 1378.875 1226.90625 1379.441406 1224.886719 1380.019531 1222.917969 C 1380.601562 1220.949219 1381.195312 1219.03125 1381.800781 1217.160156 C 1382.40625 1215.289062 1383.027344 1213.46875 1383.660156 1211.703125 C 1384.292969 1209.933594 1384.941406 1208.222656 1385.597656 1206.5625 C 1386.253906 1204.902344 1386.925781 1203.300781 1387.605469 1201.753906 C 1388.289062 1200.203125 1388.980469 1198.714844 1389.683594 1197.28125 C 1390.386719 1195.851562 1391.097656 1194.480469 1391.820312 1193.167969 C 1392.542969 1191.855469 1393.273438 1190.601562 1394.015625 1189.410156 C 1394.753906 1188.21875 1395.503906 1187.089844 1396.261719 1186.027344 C 1397.019531 1184.960938 1397.78125 1183.957031 1398.554688 1183.019531 C 1399.324219 1182.082031 1400.105469 1181.207031 1400.886719 1180.398438 C 1401.671875 1179.589844 1402.460938 1178.847656 1403.253906 1178.171875 C 1404.050781 1177.492188 1404.847656 1176.882812 1405.652344 1176.339844 C 1406.457031 1175.796875 1407.261719 1175.320312 1408.074219 1174.910156 C 1408.882812 1174.503906 1409.699219 1174.160156 1410.511719 1173.890625 C 1411.328125 1173.617188 1412.144531 1173.410156 1412.964844 1173.273438 C 1413.78125 1173.136719 1414.601562 1173.070312 1415.417969 1173.070312 C 1416.238281 1173.070312 1417.058594 1173.136719 1417.875 1173.273438 C 1418.695312 1173.410156 1419.511719 1173.617188 1420.328125 1173.890625 C 1421.140625 1174.164062 1421.957031 1174.503906 1422.765625 1174.914062 C 1423.574219 1175.320312 1424.382812 1175.796875 1425.1875 1176.339844 C 1425.988281 1176.882812 1426.789062 1177.492188 1427.582031 1178.171875 C 1428.378906 1178.847656 1429.167969 1179.589844 1429.953125 1180.398438 C 1430.734375 1181.207031 1431.511719 1182.082031 1432.285156 1183.019531 C 1433.054688 1183.957031 1433.820312 1184.960938 1434.578125 1186.027344 C 1435.332031 1187.089844 1436.082031 1188.21875 1436.824219 1189.410156 C 1437.5625 1190.601562 1438.296875 1191.855469 1439.019531 1193.167969 C 1439.742188 1194.480469 1440.453125 1195.851562 1441.15625 1197.285156 C 1441.859375 1198.714844 1442.550781 1200.207031 1443.230469 1201.753906 C 1443.914062 1203.300781 1444.582031 1204.902344 1445.242188 1206.5625 C 1445.898438 1208.222656 1446.542969 1209.9375 1447.179688 1211.703125 C 1447.8125 1213.46875 1448.429688 1215.289062 1449.039062 1217.160156 C 1449.644531 1219.03125 1450.238281 1220.949219 1450.816406 1222.917969 C 1451.398438 1224.886719 1451.960938 1226.90625 1452.511719 1228.96875 C 1453.0625 1231.03125 1453.597656 1233.140625 1454.117188 1235.296875 C 1454.636719 1237.449219 1455.140625 1239.644531 1455.628906 1241.878906 C 1456.117188 1244.117188 1456.589844 1246.394531 1457.042969 1248.710938 C 1457.5 1251.027344 1457.9375 1253.378906 1458.359375 1255.765625 C 1458.78125 1258.15625 1459.183594 1260.578125 1459.570312 1263.035156 C 1459.957031 1265.492188 1460.324219 1267.980469 1460.675781 1270.5 C 1461.023438 1273.015625 1461.355469 1275.5625 1461.667969 1278.136719 C 1461.984375 1280.707031 1462.277344 1283.304688 1462.554688 1285.929688 C 1462.832031 1288.550781 1463.085938 1291.195312 1463.324219 1293.863281 C 1463.5625 1296.527344 1463.78125 1299.210938 1463.980469 1301.914062 C 1464.179688 1304.613281 1464.359375 1307.332031 1464.519531 1310.0625 C 1464.679688 1312.796875 1464.820312 1315.539062 1464.9375 1318.296875 C 1465.058594 1321.050781 1465.160156 1323.816406 1465.238281 1326.585938 C 1465.320312 1329.359375 1465.378906 1332.136719 1465.421875 1334.917969 C 1465.460938 1337.699219 1465.480469 1340.484375 1465.480469 1343.269531 Z M 1465.480469 1343.269531 " fill-opacity="1" fill-rule="nonzero"/><path fill="#ffffff" d="M 1735.832031 1313.15625 C 1735.828125 1315.941406 1735.808594 1318.726562 1735.769531 1321.507812 C 1735.730469 1324.289062 1735.667969 1327.066406 1735.589844 1329.839844 C 1735.507812 1332.609375 1735.410156 1335.375 1735.289062 1338.128906 C 1735.167969 1340.882812 1735.027344 1343.628906 1734.867188 1346.359375 C 1734.707031 1349.09375 1734.527344 1351.808594 1734.328125 1354.511719 C 1734.128906 1357.210938 1733.914062 1359.894531 1733.675781 1362.5625 C 1733.4375 1365.226562 1733.179688 1367.871094 1732.902344 1370.492188 C 1732.628906 1373.113281 1732.332031 1375.714844 1732.019531 1378.289062 C 1731.707031 1380.859375 1731.375 1383.40625 1731.023438 1385.925781 C 1730.671875 1388.441406 1730.304688 1390.929688 1729.917969 1393.386719 C 1729.53125 1395.84375 1729.128906 1398.265625 1728.707031 1400.65625 C 1728.285156 1403.042969 1727.847656 1405.398438 1727.394531 1407.714844 C 1726.9375 1410.027344 1726.464844 1412.304688 1725.976562 1414.542969 C 1725.492188 1416.78125 1724.988281 1418.976562 1724.464844 1421.128906 C 1723.945312 1423.28125 1723.410156 1425.390625 1722.863281 1427.453125 C 1722.3125 1429.519531 1721.746094 1431.535156 1721.167969 1433.503906 C 1720.589844 1435.476562 1719.996094 1437.394531 1719.386719 1439.265625 C 1718.78125 1441.136719 1718.160156 1442.957031 1717.527344 1444.722656 C 1716.894531 1446.488281 1716.25 1448.203125 1715.589844 1449.859375 C 1714.933594 1451.519531 1714.261719 1453.125 1713.582031 1454.671875 C 1712.898438 1456.21875 1712.207031 1457.707031 1711.503906 1459.140625 C 1710.800781 1460.574219 1710.089844 1461.945312 1709.367188 1463.257812 C 1708.644531 1464.574219 1707.914062 1465.824219 1707.171875 1467.015625 C 1706.433594 1468.207031 1705.683594 1469.332031 1704.925781 1470.398438 C 1704.167969 1471.464844 1703.40625 1472.46875 1702.632812 1473.40625 C 1701.863281 1474.34375 1701.085938 1475.21875 1700.300781 1476.027344 C 1699.515625 1476.835938 1698.726562 1477.578125 1697.933594 1478.253906 C 1697.136719 1478.933594 1696.339844 1479.542969 1695.535156 1480.085938 C 1694.730469 1480.628906 1693.925781 1481.105469 1693.113281 1481.511719 C 1692.304688 1481.921875 1691.492188 1482.261719 1690.675781 1482.535156 C 1689.859375 1482.808594 1689.042969 1483.011719 1688.226562 1483.148438 C 1687.40625 1483.289062 1686.589844 1483.355469 1685.769531 1483.355469 C 1684.949219 1483.355469 1684.128906 1483.289062 1683.3125 1483.152344 C 1682.496094 1483.015625 1681.675781 1482.808594 1680.863281 1482.539062 C 1680.046875 1482.265625 1679.234375 1481.921875 1678.421875 1481.511719 C 1677.613281 1481.105469 1676.804688 1480.628906 1676 1480.085938 C 1675.199219 1479.542969 1674.398438 1478.929688 1673.605469 1478.253906 C 1672.808594 1477.578125 1672.019531 1476.835938 1671.238281 1476.027344 C 1670.453125 1475.21875 1669.675781 1474.34375 1668.902344 1473.40625 C 1668.132812 1472.46875 1667.367188 1471.464844 1666.609375 1470.398438 C 1665.855469 1469.332031 1665.105469 1468.207031 1664.363281 1467.015625 C 1663.625 1465.824219 1662.894531 1464.574219 1662.171875 1463.257812 C 1661.449219 1461.945312 1660.734375 1460.574219 1660.03125 1459.140625 C 1659.328125 1457.707031 1658.636719 1456.21875 1657.957031 1454.671875 C 1657.273438 1453.125 1656.605469 1451.519531 1655.949219 1449.859375 C 1655.289062 1448.203125 1654.644531 1446.488281 1654.011719 1444.722656 C 1653.378906 1442.957031 1652.757812 1441.136719 1652.148438 1439.265625 C 1651.542969 1437.394531 1650.949219 1435.476562 1650.371094 1433.503906 C 1649.789062 1431.535156 1649.226562 1429.519531 1648.675781 1427.453125 C 1648.125 1425.390625 1647.589844 1423.28125 1647.070312 1421.128906 C 1646.550781 1418.976562 1646.046875 1416.78125 1645.558594 1414.542969 C 1645.070312 1412.304688 1644.597656 1410.027344 1644.144531 1407.710938 C 1643.6875 1405.398438 1643.25 1403.042969 1642.828125 1400.652344 C 1642.40625 1398.265625 1642.003906 1395.84375 1641.617188 1393.386719 C 1641.230469 1390.929688 1640.863281 1388.441406 1640.511719 1385.925781 C 1640.164062 1383.40625 1639.832031 1380.859375 1639.519531 1378.289062 C 1639.203125 1375.714844 1638.910156 1373.113281 1638.632812 1370.492188 C 1638.355469 1367.871094 1638.101562 1365.226562 1637.863281 1362.5625 C 1637.625 1359.894531 1637.40625 1357.210938 1637.207031 1354.511719 C 1637.007812 1351.808594 1636.828125 1349.09375 1636.667969 1346.359375 C 1636.507812 1343.628906 1636.367188 1340.882812 1636.25 1338.128906 C 1636.128906 1335.375 1636.027344 1332.609375 1635.949219 1329.839844 C 1635.867188 1327.066406 1635.808594 1324.289062 1635.769531 1321.507812 C 1635.726562 1318.726562 1635.707031 1315.941406 1635.707031 1313.15625 C 1635.707031 1310.367188 1635.726562 1307.585938 1635.769531 1304.804688 C 1635.808594 1302.019531 1635.867188 1299.246094 1635.949219 1296.472656 C 1636.027344 1293.699219 1636.128906 1290.9375 1636.25 1288.179688 C 1636.367188 1285.425781 1636.507812 1282.679688 1636.667969 1279.949219 C 1636.828125 1277.21875 1637.007812 1274.5 1637.207031 1271.796875 C 1637.40625 1269.097656 1637.625 1266.414062 1637.863281 1263.746094 C 1638.101562 1261.082031 1638.355469 1258.4375 1638.632812 1255.816406 C 1638.910156 1253.191406 1639.203125 1250.59375 1639.519531 1248.023438 C 1639.832031 1245.449219 1640.164062 1242.902344 1640.511719 1240.382812 C 1640.863281 1237.867188 1641.230469 1235.378906 1641.617188 1232.921875 C 1642.003906 1230.464844 1642.40625 1228.042969 1642.828125 1225.652344 C 1643.25 1223.265625 1643.6875 1220.910156 1644.144531 1218.59375 C 1644.597656 1216.277344 1645.070312 1214.003906 1645.558594 1211.765625 C 1646.046875 1209.527344 1646.550781 1207.332031 1647.070312 1205.179688 C 1647.589844 1203.027344 1648.125 1200.917969 1648.675781 1198.855469 C 1649.226562 1196.789062 1649.789062 1194.773438 1650.371094 1192.804688 C 1650.949219 1190.835938 1651.542969 1188.914062 1652.148438 1187.042969 C 1652.757812 1185.171875 1653.375 1183.355469 1654.011719 1181.589844 C 1654.644531 1179.820312 1655.289062 1178.105469 1655.945312 1176.449219 C 1656.605469 1174.789062 1657.273438 1173.183594 1657.957031 1171.636719 C 1658.636719 1170.089844 1659.328125 1168.601562 1660.03125 1167.167969 C 1660.734375 1165.738281 1661.445312 1164.363281 1662.167969 1163.050781 C 1662.890625 1161.738281 1663.625 1160.488281 1664.363281 1159.296875 C 1665.105469 1158.105469 1665.855469 1156.976562 1666.609375 1155.910156 C 1667.367188 1154.84375 1668.132812 1153.84375 1668.902344 1152.902344 C 1669.675781 1151.964844 1670.453125 1151.09375 1671.238281 1150.285156 C 1672.019531 1149.476562 1672.808594 1148.730469 1673.605469 1148.054688 C 1674.398438 1147.378906 1675.199219 1146.769531 1676 1146.222656 C 1676.804688 1145.679688 1677.613281 1145.203125 1678.421875 1144.796875 C 1679.234375 1144.386719 1680.046875 1144.046875 1680.863281 1143.773438 C 1681.675781 1143.5 1682.496094 1143.296875 1683.3125 1143.160156 C 1684.132812 1143.023438 1684.949219 1142.953125 1685.769531 1142.953125 C 1686.589844 1142.953125 1687.40625 1143.023438 1688.226562 1143.160156 C 1689.042969 1143.296875 1689.859375 1143.5 1690.675781 1143.773438 C 1691.492188 1144.046875 1692.304688 1144.390625 1693.113281 1144.796875 C 1693.925781 1145.207031 1694.730469 1145.683594 1695.535156 1146.226562 C 1696.339844 1146.769531 1697.136719 1147.378906 1697.933594 1148.054688 C 1698.726562 1148.730469 1699.515625 1149.476562 1700.300781 1150.285156 C 1701.085938 1151.09375 1701.863281 1151.964844 1702.632812 1152.902344 C 1703.40625 1153.84375 1704.167969 1154.84375 1704.925781 1155.910156 C 1705.683594 1156.976562 1706.433594 1158.105469 1707.171875 1159.296875 C 1707.914062 1160.488281 1708.644531 1161.738281 1709.367188 1163.050781 C 1710.089844 1164.363281 1710.800781 1165.738281 1711.503906 1167.167969 C 1712.207031 1168.601562 1712.898438 1170.089844 1713.582031 1171.636719 C 1714.261719 1173.183594 1714.933594 1174.789062 1715.589844 1176.449219 C 1716.25 1178.109375 1716.894531 1179.820312 1717.527344 1181.589844 C 1718.160156 1183.355469 1718.78125 1185.171875 1719.386719 1187.042969 C 1719.996094 1188.914062 1720.589844 1190.835938 1721.167969 1192.804688 C 1721.746094 1194.773438 1722.3125 1196.789062 1722.863281 1198.855469 C 1723.410156 1200.917969 1723.945312 1203.027344 1724.464844 1205.179688 C 1724.988281 1207.332031 1725.488281 1209.527344 1725.976562 1211.765625 C 1726.464844 1214.003906 1726.9375 1216.277344 1727.394531 1218.59375 C 1727.847656 1220.910156 1728.285156 1223.261719 1728.707031 1225.652344 C 1729.128906 1228.042969 1729.53125 1230.464844 1729.917969 1232.921875 C 1730.304688 1235.378906 1730.671875 1237.867188 1731.023438 1240.382812 C 1731.375 1242.902344 1731.707031 1245.445312 1732.019531 1248.019531 C 1732.332031 1250.59375 1732.628906 1253.191406 1732.902344 1255.8125 C 1733.179688 1258.4375 1733.4375 1261.082031 1733.675781 1263.746094 C 1733.914062 1266.410156 1734.128906 1269.09375 1734.328125 1271.796875 C 1734.527344 1274.5 1734.707031 1277.214844 1734.867188 1279.949219 C 1735.027344 1282.679688 1735.167969 1285.425781 1735.289062 1288.179688 C 1735.410156 1290.9375 1735.507812 1293.699219 1735.589844 1296.472656 C 1735.667969 1299.242188 1735.730469 1302.019531 1735.769531 1304.804688 C 1735.808594 1307.585938 1735.828125 1310.367188 1735.832031 1313.15625 Z M 1735.832031 1313.15625 " fill-opacity="1" fill-rule="nonzero"/><path fill="#ffffff" d="M 1059.359375 208.886719 C 917.398438 224.449219 862.273438 429.5625 942.582031 530.570312 C 1040.128906 605.855469 1144.953125 505.121094 1243.304688 487.363281 C 1346.402344 438.769531 1334.035156 251.933594 1212.933594 239.683594 C 1163.023438 224.582031 1112.507812 204.601562 1059.359375 208.886719 Z M 561.015625 913.847656 C 358.671875 971.972656 274.253906 1236.445312 375.5625 1413.589844 C 426.445312 1560.5625 506.824219 1720.472656 657.699219 1785.644531 C 778.21875 1790.859375 814.007812 1636.5625 770.203125 1546.945312 C 737.964844 1357.496094 713.75 1163.636719 679.515625 977.15625 C 652.277344 940.09375 609.152344 908.972656 561.023438 913.847656 Z M 561.015625 913.847656 " fill-opacity="0.292" fill-rule="nonzero"/></svg>